<?xml version="1.0" encoding="UTF-8"?>
<svg width="28px" height="30px" viewBox="0 0 28 30" version="1.1" xmlns="http://www.w3.org/2000/svg" xmlns:xlink="http://www.w3.org/1999/xlink">
    <!-- Generator: Sketch 47.1 (45422) - http://www.bohemiancoding.com/sketch -->
    <title>LOGO</title>
    <desc>Created with Sketch.</desc>
    <defs></defs>
    <g id="Page-1" stroke="none" stroke-width="1" fill="none" fill-rule="evenodd">
        <g id="Desktop" transform="translate(-200.000000, -24.000000)">
            <g id="masthead" transform="translate(-315.000000, -395.000000)">
                <g id="LOGO" transform="translate(515.000000, 419.000000)">
                    <g id="Group-3" transform="translate(13.441103, 21.273099)"></g>
                    <path d="M21.1300376,29.6351229 L20.922594,29.6351229 C17.3754637,29.6351229 14.5,26.7130611 14.5,23.108448 L14.5,22.976596 L14.5,18.0757275 C14.5340301,16.6077487 14.8395238,16.3830476 15.8300476,16.3830476 C16.7982732,16.3830476 20.922594,16.3709677 20.922594,16.3709677 L21.1300376,16.3709677 C24.6771679,16.3709677 27.5526316,19.3719829 27.5526316,22.976596 L27.5526316,23.108448 C27.5526316,26.7130611 24.6771679,29.6351229 21.1300376,29.6351229" id="Fill-1" fill="#FFFFFF"></path>
                    <path d="M21.1300376,0 L20.922594,0 C17.3754637,0 14.5,2.92206181 14.5,6.52667494 L14.5,6.65852696 L14.5,11.5593954 C14.5340301,13.0273742 14.8395238,13.2520753 15.8300476,13.2520753 C16.7982732,13.2520753 20.922594,13.2641552 20.922594,13.2641552 L21.1300376,13.2641552 C24.6771679,13.2641552 27.5526316,10.2631401 27.5526316,6.65852696 L27.5526316,6.52667494 C27.5526316,2.92206181 24.6771679,0 21.1300376,0" id="Fill-8" fill="#FFFFFF"></path>
                    <path d="M9.69853258,29.575311 L0.317342105,22.60667 C-0.105780702,22.2923131 -0.105780702,21.5065056 0.317342105,21.1922336 L9.69853258,14.2235077 C10.1216554,13.9092356 10.6505977,14.3020969 10.6505977,14.9307259 L10.6505977,28.8680928 C10.6505977,29.4967218 10.1216554,29.8896679 9.69853258,29.575311" id="Fill-4" fill="#FFFFFF"></path>
                    <path d="M9.69853258,15.4624078 L0.317342105,8.49376675 C-0.105780702,8.17940983 -0.105780702,7.39360241 0.317342105,7.07933036 L9.69853258,0.110604441 C10.1216554,-0.203667607 10.6505977,0.18919367 10.6505977,0.817822634 L10.6505977,14.7551896 C10.6505977,15.3838186 10.1216554,15.7767647 9.69853258,15.4624078" id="Fill-6" fill="#FFFFFF"></path>
                </g>
            </g>
        </g>
    </g>
</svg>